<?xml version="1.0" encoding="UTF-8"?>
<svg version="1.1" xmlns="http://www.w3.org/2000/svg" width="500" height="500">
<path d="M0 0 C11.04894135 9.0565093 14.73165216 20.58242328 16.75 34.3125 C17.5028125 33.6834375 18.255625 33.054375 19.03125 32.40625 C38.84448408 16.27058023 61.1931732 9.48630151 86.75 11.3125 C100.29413934 13.1651792 112.54827582 19.37365851 122.75 28.3125 C123.67232422 29.11107422 123.67232422 29.11107422 124.61328125 29.92578125 C134.55120192 39.15857229 141.17920282 52.29061866 141.953125 65.87890625 C142.1375557 81.60162338 139.10263267 94.68785655 128.0625 106.625 C116.93822461 116.93320886 104.28399927 121.01982369 89.33203125 120.65625 C80.35384237 119.79465717 73.15942965 115.5572605 66.75 109.3125 C59.82932665 100.5856997 58.83891591 91.13723719 59.51171875 80.33154297 C60.36173258 73.12906924 64.42680713 67.91433573 69.90625 63.46875 C75.54527413 59.93241283 81.23743955 59.25591677 87.75 60.3125 C93.31565286 63.11809915 97.76031088 67.34343264 99.75 73.3125 C100.5756648 79.29267218 99.82412565 83.64324665 96.28515625 88.58203125 C92.92439408 92.37037131 89.95568999 94.13390162 84.85546875 94.546875 C82.13989163 94.56081891 79.45931106 94.48887468 76.75 94.3125 C79.24259072 99.03530346 81.76008071 102.19128027 86.875 104.109375 C94.8469844 106.20457603 101.98613736 104.6688976 109.30078125 101.05078125 C117.37442414 96.09804233 122.10793612 89.30649209 125.0546875 80.3671875 C127.77319821 68.42406739 125.36146074 57.90686907 119.0625 47.625 C111.01421652 36.41346082 99.26348591 29.78177814 85.75 27.3125 C69.39066465 25.48785586 51.08869138 28.16399824 37.75 38.3125 C36.85152344 38.97121094 35.95304688 39.62992187 35.02734375 40.30859375 C21.92148748 50.42191613 12.86281022 64.63627007 3.76953125 78.28515625 C-12.57979362 102.21363835 -37.1141669 118.3870752 -65.52392578 123.90454102 C-95.91677409 128.45285281 -125.92923714 118.85800114 -150.375 101 C-163.77107553 90.56458509 -175.68090697 79.63197894 -186.25 66.3125 C-187.06855469 65.29929687 -187.88710937 64.28609375 -188.73046875 63.2421875 C-197.97213627 51.66945032 -204.91989438 39.31371968 -211.375 26 C-211.87314209 24.9785791 -212.37128418 23.9571582 -212.88452148 22.90478516 C-213.33770752 21.95007324 -213.79089355 20.99536133 -214.2578125 20.01171875 C-214.66660645 19.15408936 -215.07540039 18.29645996 -215.49658203 17.4128418 C-215.74520996 16.719729 -215.99383789 16.02661621 -216.25 15.3125 C-215.92 14.6525 -215.59 13.9925 -215.25 13.3125 C-214.93885254 13.81998779 -214.62770508 14.32747559 -214.30712891 14.8503418 C-204.82124541 30.25924576 -194.80388351 44.21433879 -182.25 57.3125 C-181.69715332 57.89789551 -181.14430664 58.48329102 -180.57470703 59.08642578 C-154.93426106 86.13670466 -120.8952998 107.59229582 -82.77563477 109.28930664 C-58.35234501 109.88175672 -36.97106056 99.47838835 -19.5 82.9375 C-12.07101829 75.06499699 -6.00566535 66.48961669 -2.25 56.3125 C-1.93160156 55.45269531 -1.61320313 54.59289062 -1.28515625 53.70703125 C2.02865217 43.36855982 2.62863051 31.23655181 -2.25 21.3125 C-5.87985992 14.89974748 -9.51556651 11.65516671 -16.5625 9.5625 C-26.36230602 7.17805522 -34.47430194 8.42465097 -43.5 12.9375 C-48.92096964 17.61924651 -52.38305098 22.6092701 -53.3125 29.8125 C-53.53809639 35.18169403 -52.32023333 39.41294779 -50.25 44.3125 C-49.940625 45.281875 -49.63125 46.25125 -49.3125 47.25 C-48.00212009 49.79367866 -46.88762482 50.32339069 -44.25 51.3125 C-43.59 51.6425 -42.93 51.9725 -42.25 52.3125 C-38.53808983 52.72493446 -34.95354069 52.82672869 -31.25 52.3125 C-28.50229728 50.0336176 -28.50229728 50.0336176 -27.25 47.3125 C-27.84167969 47.28671875 -28.43335938 47.2609375 -29.04296875 47.234375 C-34.2859263 46.85804526 -37.48949994 46.30090916 -41.25 42.3125 C-43.77599898 38.82421569 -43.75729677 35.51581607 -43.25 31.3125 C-41.13807101 27.4527677 -39.86469236 25.90791781 -35.75 24.390625 C-30.41956085 23.17646942 -25.99423556 22.86793599 -20.96875 25.1953125 C-16.46087473 28.12543143 -13.91271289 32.25175379 -12.25 37.3125 C-11.34307472 45.13115053 -11.56695878 52.26773279 -15.5546875 59.18359375 C-19.27407219 63.85424964 -24.34538715 67.22511585 -30.25 68.3125 C-38.98013649 69.22775624 -48.48515776 67.67753282 -55.6875 62.5 C-63.55803217 55.81900996 -67.59018619 48.87731413 -68.63671875 38.46484375 C-69.23074089 24.7990435 -65.51217014 13.26968252 -56.25 3.12109375 C-41.7219384 -10.96593741 -16.37445678 -11.20685255 0 0 Z " fill="#000000" transform="translate(285.25,316.6875)"/>
<path d="M0 0 C6.62491878 5.10941448 10.87643895 12.69505339 13.04296875 20.6953125 C14.11158283 33.31050985 12.75979909 41.96287538 4.76171875 51.75 C3.24417259 53.46758633 1.68798006 55.10045397 0.04296875 56.6953125 C9.36742297 64.98839368 20.45234158 72.14101679 33.28515625 71.97265625 C40.99060373 71.19774581 47.98064407 67.53550658 53.04296875 61.6953125 C56.81274657 56.22828176 60.17641235 51.19958031 60.15649414 44.4074707 C60.15641861 43.54680496 60.15634308 42.68613922 60.15626526 41.7993927 C60.14852333 40.41175972 60.14852333 40.41175972 60.140625 38.99609375 C60.13921005 38.04590866 60.1377951 37.09572357 60.13633728 36.116745 C60.1307375 33.08040221 60.11818507 30.04413302 60.10546875 27.0078125 C60.10045372 24.94987086 60.09589082 22.89192806 60.09179688 20.83398438 C60.08161883 15.78770921 60.06204331 10.7415933 60.04296875 5.6953125 C50.80296875 5.6953125 41.56296875 5.6953125 32.04296875 5.6953125 C27.04296875 -5.3046875 27.04296875 -5.3046875 28.04296875 -9.3046875 C54.77296875 -9.3046875 81.50296875 -9.3046875 109.04296875 -9.3046875 C114.04296875 0.6953125 114.04296875 0.6953125 114.04296875 5.6953125 C113.37241455 5.71513184 112.70186035 5.73495117 112.01098633 5.75537109 C108.95876714 5.85090965 105.90720534 5.96047195 102.85546875 6.0703125 C101.80037109 6.10125 100.74527344 6.1321875 99.65820312 6.1640625 C98.12583008 6.22207031 98.12583008 6.22207031 96.5625 6.28125 C95.62510986 6.3126709 94.68771973 6.3440918 93.72192383 6.37646484 C90.7497949 6.73020588 88.67206865 7.25129411 86.04296875 8.6953125 C83.23392026 12.26923163 82.61451684 15.2037499 82.34765625 19.68359375 C82.23357422 21.45959961 82.23357422 21.45959961 82.1171875 23.27148438 C82.01857422 25.1209668 82.01857422 25.1209668 81.91796875 27.0078125 C81.84449219 28.16732422 81.77101563 29.32683594 81.6953125 30.52148438 C81.44866768 34.57814255 81.24260037 38.63614049 81.04296875 42.6953125 C81.00113653 43.54075056 80.95930431 44.38618862 80.91620445 45.25724602 C80.19381818 60.19385729 79.90543557 75.08648719 79.9453125 90.0390625 C79.94718538 92.15710415 79.94860515 94.27514624 79.94960022 96.39318848 C79.95335705 101.87721017 79.9631259 107.36120393 79.9743042 112.84521484 C79.98466829 118.47753522 79.98912944 124.10986027 79.99414062 129.7421875 C80.00475682 140.72657454 80.02174724 151.71094117 80.04296875 162.6953125 C73.57955294 163.77351547 69.26177367 163.52130611 63.64257812 160.19555664 C60.49810705 157.68642337 59.22217533 155.65236832 58.4765625 151.67041016 C58.04050747 143.31462164 58.86313212 134.99962374 59.62451172 126.68359375 C60.0983421 121.33937348 60.36707413 115.9918948 60.609375 110.6328125 C60.67171829 109.2556179 60.67171829 109.2556179 60.73532104 107.8506012 C60.81764933 106.01729309 60.8995321 104.18396491 60.98095703 102.35061646 C61.18053014 97.99439523 61.40963747 93.63980775 61.640625 89.28515625 C61.68127579 88.51490112 61.72192657 87.744646 61.7638092 86.9510498 C61.85644155 85.19911507 61.94963385 83.44720995 62.04296875 81.6953125 C61.21152344 82.11683594 60.38007813 82.53835937 59.5234375 82.97265625 C58.43675781 83.52050781 57.35007812 84.06835938 56.23046875 84.6328125 C55.15152344 85.17808594 54.07257813 85.72335938 52.9609375 86.28515625 C44.67513965 90.28940394 35.81032215 89.57903995 27.23046875 86.6953125 C25.49385438 86.04829447 23.76150593 85.3889203 22.04296875 84.6953125 C22.36523438 85.50613281 22.6875 86.31695312 23.01953125 87.15234375 C26.00154768 97.47558384 25.24221154 110.26879219 20.04296875 119.6953125 C13.94163874 129.71314612 5.06925366 135.9488904 -6.19921875 139.0390625 C-21.34453955 141.68398339 -37.8824842 140.31217532 -50.95703125 131.6953125 C-66.06738609 119.7619048 -79.74225046 101.51228376 -84.95703125 82.6953125 C-84.95703125 81.3753125 -84.95703125 80.0553125 -84.95703125 78.6953125 C-83.52789278 77.97025692 -82.08832467 77.26572815 -80.64453125 76.5703125 C-79.44376953 75.97863281 -79.44376953 75.97863281 -78.21875 75.375 C-77.47238281 75.15070313 -76.72601563 74.92640625 -75.95703125 74.6953125 C-72.21380309 77.19079794 -71.42261077 79.93146029 -69.83203125 83.9453125 C-63.89175975 98.12919337 -55.45998112 112.98098386 -40.95703125 119.6953125 C-31.87962321 123.25508036 -22.39769293 122.63565144 -13.4921875 118.9453125 C-4.77974908 114.64950311 0.34090578 108.69729299 3.85546875 99.58984375 C6.54210868 90.24257564 5.07022022 82.38642564 1.04296875 73.6953125 C-1.85690746 69.20518159 -5.07841012 66.50735596 -10.26953125 65.04296875 C-13.38476488 64.63998068 -15.49118072 65.07113216 -18.51953125 65.8828125 C-19.56109375 66.15996094 -20.60265625 66.43710938 -21.67578125 66.72265625 C-25.9941069 68.00273135 -30.23250328 69.47357316 -34.4609375 71.0234375 C-36.95703125 71.6953125 -36.95703125 71.6953125 -39.95703125 70.6953125 C-42 68.11328125 -42 68.11328125 -44.14453125 64.8828125 C-45.21767578 63.29533203 -45.21767578 63.29533203 -46.3125 61.67578125 C-47.95703125 58.6953125 -47.95703125 58.6953125 -47.95703125 54.6953125 C-47.37324707 54.48962646 -46.78946289 54.28394043 -46.18798828 54.07202148 C-30.5746343 48.74570471 -30.5746343 48.74570471 -16.95703125 39.6953125 C-16.29703125 39.13070312 -15.63703125 38.56609375 -14.95703125 37.984375 C-9.70184261 33.14522213 -6.78192722 28.05381754 -5.08203125 21.1328125 C-4.93761638 17.16140366 -5.4694077 14.37895178 -6.95703125 10.6953125 C-10.37723176 7.27511199 -14.24249902 6.55246423 -18.95703125 6.3828125 C-34.26651254 6.68250871 -47.15338235 17.18914189 -58.5546875 26.359375 C-60.95703125 27.6953125 -60.95703125 27.6953125 -63.40234375 27.84765625 C-67.31906325 26.08094027 -69.27291914 23.04273799 -71.76953125 19.6328125 C-72.27162109 18.96958984 -72.77371094 18.30636719 -73.29101562 17.62304688 C-74.52501811 15.98946263 -75.74265866 14.3435415 -76.95703125 12.6953125 C-56.38505519 -8.51137062 -25.96380964 -17.30920643 0 0 Z " fill="#000000" transform="translate(243.95703125,133.3046875)"/>
</svg>
